<?xml version="1.0" encoding="UTF-8"?>
<svg width="50px" height="39px" viewBox="0 0 50 39" version="1.1" xmlns="http://www.w3.org/2000/svg" xmlns:xlink="http://www.w3.org/1999/xlink">
    <!-- Generator: Sketch 53.2 (72643) - https://sketchapp.com -->
    <title>Group</title>
    <desc>Created with Sketch.</desc>
    <g id="WiP" stroke="none" stroke-width="1" fill="none" fill-rule="evenodd">
        <g id="Artboard" transform="translate(-90.000000, -38.000000)">
            <g id="Group" transform="translate(90.000000, 38.000000)">
                <path d="M4020 6452 c0 -9 2 -9 -300 -22 -304 -12 -482 -38 -820 -121 -248
-60 -442 -118 -545 -162 -257 -109 -454 -212 -526 -276 -54 -47 -168 -121
-241 -155 -113 -53 -422 -319 -513 -441 -17 -22 -51 -61 -77 -87 -50 -48 -58
-68 -33 -88 32 -26 67 3 185 155 42 55 93 112 113 125 20 14 37 28 37 31 0 16
297 239 319 239 32 0 151 -175 232 -340 101 -206 209 -611 244 -915 4 -33 16
-77 26 -97 10 -20 19 -44 19 -52 0 -8 -24 -28 -52 -44 -61 -34 -105 -72 -233
-193 -49 -48 -105 -99 -122 -114 -35 -28 -45 -71 -19 -81 25 -10 73 24 143
101 89 99 248 229 269 221 9 -3 14 -12 11 -20 -3 -7 1 -96 8 -197 25 -347 17
-700 -21 -949 -8 -52 -19 -120 -24 -150 -4 -30 -13 -75 -18 -100 -29 -129 -34
-160 -29 -179 6 -23 -21 -101 -35 -101 -4 0 -8 -6 -8 -13 0 -14 -76 -97 -118
-129 -24 -19 -30 -54 -10 -60 29 -10 61 8 126 71 68 66 148 175 190 258 30 57
71 182 88 267 74 359 103 773 82 1156 -7 107 -12 224 -12 259 -1 73 -11 63
139 142 44 23 87 46 95 50 50 27 150 69 163 69 8 0 20 7 27 15 7 8 18 15 25
15 7 0 39 12 71 27 74 33 131 55 264 99 154 51 188 61 260 77 191 45 209 47
392 47 233 0 291 -17 396 -114 92 -85 174 -257 201 -421 10 -59 9 -81 -5 -140
-9 -38 -17 -89 -18 -111 -6 -107 -207 -288 -544 -491 -97 -58 -208 -131 -246
-161 -92 -75 -117 -88 -132 -67 -7 10 -13 97 -16 248 -5 191 -12 280 -42 502
-39 283 -58 385 -83 423 -18 29 -38 16 -47 -28 -8 -45 -81 -118 -119 -122 -31
-3 -32 -5 -31 -48 0 -25 10 -92 21 -150 12 -58 26 -145 32 -195 22 -176 42
-321 51 -375 9 -51 16 -475 11 -655 -5 -196 -71 -627 -122 -797 -13 -46 -18
-83 -14 -104 6 -35 -9 -48 -19 -16 -3 9 -3 1 0 -19 2 -20 1 -44 -3 -54 -6 -18
-7 -18 -15 1 -6 16 -7 15 -6 -7 2 -14 -6 -45 -17 -68 -16 -36 -20 -40 -26 -25
-6 15 -8 13 -8 -10 -2 -62 -108 -240 -200 -333 -53 -53 -61 -72 -37 -92 20
-17 80 22 136 89 161 192 377 627 438 880 51 211 85 439 97 645 10 173 15 206
33 213 9 3 35 19 57 34 22 16 51 36 65 45 14 9 34 24 45 34 21 18 74 51 115
71 101 50 337 208 406 273 6 5 40 35 75 65 66 57 93 84 169 166 100 108 139
173 183 304 48 146 44 272 -14 424 -43 112 -84 180 -153 253 -72 78 -128 108
-221 118 -38 5 -79 9 -90 11 -11 2 -38 0 -60 -3 -36 -6 -37 -7 -15 -13 14 -4
-35 -10 -115 -14 -239 -14 -556 -95 -865 -221 -63 -26 -141 -58 -173 -71 -76
-30 -242 -109 -332 -157 -172 -92 -174 -92 -190 -76 -10 9 -24 75 -40 179 -14
91 -32 197 -40 235 -9 39 -18 84 -22 100 -3 17 -19 82 -35 145 -70 271 -177
510 -300 671 -16 20 -28 42 -28 50 0 19 349 190 470 230 94 31 286 83 368 100
24 5 48 12 54 15 12 8 112 30 194 43 29 5 60 12 70 15 49 15 328 47 494 56
208 11 421 0 504 -27 188 -60 325 -134 424 -228 56 -53 104 -149 106 -210 1
-37 3 -40 29 -38 34 2 113 66 153 124 24 34 29 53 29 98 0 50 -6 65 -48 133
-26 42 -74 100 -105 128 -88 78 -328 190 -408 190 -18 0 -36 5 -39 10 -7 12
-155 14 -155 2z"/>
            </g>
        </g>
    </g>
</svg>



